# xmcd
#
# Track frame offsets:
#	150
#	10017
#	22204
#	32348
#	44961
#	60293
#	69221
#	85104
#	102928
#	116621
#	128197
#	139841
#	148459
#	156579
#
# Disc length: 2299 seconds
#
# Revision: 0
# Processed by: cddbd v1.5.1PL0 Copyright (c) Steve Scherf et al.
# Submitted via: dBpowerAMP V4.0
#
DISCID=c508f90e
DTITLE=Josh Graves - Josh Graves
DYEAR=1998
DGENRE=Bluegrass
TTITLE0=Just Joshin'
TTITLE1=Someone You Have Forgotten
TTITLE2=Cannonball Blues
TTITLE3=Cora Is Gone
TTITLE4=I'll Be All Smiles Tonight
TTITLE5=Big Ball In Brooklyn
TTITLE6=Will You Be Lonesome Too
TTITLE7=Columbus Stockade Blues
TTITLE8=Your Love Is Like A Flower
TTITLE9=Rainbow
TTITLE10=Come Back Darling
TTITLE11=Indian Killed A Woodcock
TTITLE12=Shuckin' The Corn
TTITLE13=He Took Your Place
EXTD=
EXTT0=
EXTT1=
EXTT2=
EXTT3=
EXTT4=
EXTT5=
EXTT6=
EXTT7=
EXTT8=
EXTT9=
EXTT10=
EXTT11=
EXTT12=
EXTT13=
PLAYORDER=
